<?xml version="1.0" encoding="UTF-8" standalone="no"?>
<svg width="1429px" height="900px" viewBox="0 0 1429 900" version="1.1" xmlns="http://www.w3.org/2000/svg" xmlns:xlink="http://www.w3.org/1999/xlink">
    <!-- Generator: Sketch 40.1 (33804) - http://www.bohemiancoding.com/sketch -->
    <title>stars</title>
    <desc>Created with Sketch.</desc>
    <defs></defs>
    <g id="Page-1" stroke="none" stroke-width="1" fill="none" fill-rule="evenodd">
        <g id="email-404-v5-2" transform="translate(-11.000000, 0.000000)" fill="#475262">
            <g id="stars" transform="translate(-454.000000, -215.000000)">
                <g id="large" transform="translate(151.000000, 35.000000)">
                    <g id="stars-1" transform="translate(314.000000, 349.000000)">
                        <circle id="Oval" cx="332" cy="182" r="2"></circle>
                        <circle id="Oval" cx="182" cy="282" r="2"></circle>
                        <circle id="Oval" cx="292" cy="272" r="2"></circle>
                        <circle id="Oval" cx="42" cy="2" r="2"></circle>
                        <circle id="Oval" cx="392" cy="112" r="2"></circle>
                        <circle id="Oval" cx="112" cy="202" r="2"></circle>
                        <circle id="Oval" cx="192" cy="392" r="2"></circle>
                        <circle id="Oval" cx="222" cy="572" r="2"></circle>
                        <circle id="Oval" cx="112" cy="532" r="2"></circle>
                        <circle id="Oval" cx="182" cy="662" r="2"></circle>
                        <circle id="Oval" cx="352" cy="592" r="2"></circle>
                        <circle id="Oval" cx="282" cy="542" r="2"></circle>
                        <circle id="Oval" cx="2" cy="592" r="2"></circle>
                        <circle id="Oval" cx="812" cy="182" r="2"></circle>
                        <circle id="Oval" cx="715" cy="147" r="2"></circle>
                        <circle id="Oval" cx="772" cy="272" r="2"></circle>
                        <circle id="Oval" cx="902" cy="252" r="2"></circle>
                        <circle id="Oval" cx="872" cy="152" r="2"></circle>
                        <circle id="Oval" cx="592" cy="202" r="2"></circle>
                        <circle id="Oval" cx="682" cy="562" r="2"></circle>
                        <circle id="Oval" cx="582" cy="352" r="2"></circle>
                        <circle id="Oval" cx="472" cy="312" r="2"></circle>
                        <circle id="Oval" cx="542" cy="442" r="2"></circle>
                        <circle id="Oval" cx="672" cy="422" r="2"></circle>
                        <circle id="Oval" cx="642" cy="322" r="2"></circle>
                        <circle id="Oval" cx="362" cy="372" r="2"></circle>
                        <circle id="Oval" cx="552" cy="622" r="2"></circle>
                    </g>
                    <g id="stars-3" transform="translate(569.750000, 1252.854174) rotate(-30.000000) translate(-569.750000, -1252.854174) translate(117.750000, 897.354174)">
                        <circle id="Oval" cx="392" cy="78" r="2"></circle>
                        <circle id="Oval" cx="812" cy="108" r="2"></circle>
                        <circle id="Oval" cx="728.339746" cy="2.37822174" r="2"></circle>
                        <circle id="Oval" cx="731.21539" cy="220.641016" r="2"></circle>
                        <circle id="Oval" cx="902" cy="178" r="2"></circle>
                        <circle id="Oval" cx="872" cy="78" r="2"></circle>
                        <circle id="Oval" cx="582" cy="145.320508" r="2"></circle>
                        <circle id="Oval" cx="642" cy="248" r="2"></circle>
                    </g>
                    <g id="stars-3" transform="translate(766.000000, 395.860180) rotate(-10.000000) translate(-766.000000, -395.860180) translate(314.000000, 73.860180)">
                        <circle id="Oval" cx="292" cy="132" r="2"></circle>
                        <circle id="Oval" cx="422" cy="112" r="2"></circle>
                        <circle id="Oval" cx="112" cy="62" r="2"></circle>
                        <circle id="Oval" cx="192" cy="252" r="2"></circle>
                        <circle id="Oval" cx="222" cy="432" r="2"></circle>
                        <circle id="Oval" cx="122.418891" cy="332.911535" r="2"></circle>
                        <circle id="Oval" cx="312" cy="502" r="2"></circle>
                        <circle id="Oval" cx="328.90905" cy="308.72867" r="2"></circle>
                        <circle id="Oval" cx="2" cy="452" r="2"></circle>
                        <circle id="Oval" cx="82" cy="642" r="2"></circle>
                        <circle id="Oval" cx="672" cy="252" r="2"></circle>
                        <circle id="Oval" cx="582" cy="212" r="2"></circle>
                        <circle id="Oval" cx="472" cy="172" r="2"></circle>
                        <circle id="Oval" cx="536.790555" cy="331.544233" r="2"></circle>
                        <circle id="Oval" cx="725.87902" cy="321.963123" r="2"></circle>
                        <circle id="Oval" cx="642" cy="182" r="2"></circle>
                        <circle id="Oval" cx="362" cy="232" r="2"></circle>
                        <circle id="Oval" cx="442" cy="422" r="2"></circle>
                    </g>
                    <g id="stars-2" transform="translate(1519.750000, 914.504809) rotate(30.000000) translate(-1519.750000, -914.504809) translate(1067.750000, 585.004809)">
                        <circle id="Oval" cx="332" cy="57" r="2"></circle>
                        <circle id="Oval" cx="222" cy="17" r="2"></circle>
                        <circle id="Oval" cx="292" cy="147" r="2"></circle>
                        <circle id="Oval" cx="422" cy="127" r="2"></circle>
                        <circle id="Oval" cx="435.30127" cy="2" r="2"></circle>
                        <circle id="Oval" cx="112" cy="77" r="2"></circle>
                        <circle id="Oval" cx="192" cy="267" r="2"></circle>
                        <circle id="Oval" cx="222" cy="447" r="2"></circle>
                        <circle id="Oval" cx="112" cy="407" r="2"></circle>
                        <circle id="Oval" cx="182" cy="537" r="2"></circle>
                        <circle id="Oval" cx="312" cy="517" r="2"></circle>
                        <circle id="Oval" cx="282" cy="417" r="2"></circle>
                        <circle id="Oval" cx="2" cy="467" r="2"></circle>
                        <circle id="Oval" cx="82" cy="657" r="2"></circle>
                        <circle id="Oval" cx="672" cy="267" r="2"></circle>
                        <circle id="Oval" cx="582" cy="227" r="2"></circle>
                        <circle id="Oval" cx="472" cy="187" r="2"></circle>
                        <circle id="Oval" cx="542" cy="317" r="2"></circle>
                        <circle id="Oval" cx="672" cy="297" r="2"></circle>
                        <circle id="Oval" cx="362" cy="247" r="2"></circle>
                        <circle id="Oval" cx="442" cy="437" r="2"></circle>
                    </g>
                    <g id="stars-4" transform="translate(1313.395277, 550.632296) rotate(10.000000) translate(-1313.395277, -550.632296) translate(861.395277, 213.632296)">
                        <circle id="Oval" cx="196.498504" cy="91.2782351" r="2"></circle>
                        <circle id="Oval" cx="222" cy="2" r="2"></circle>
                        <circle id="Oval" cx="292" cy="132" r="2"></circle>
                        <circle id="Oval" cx="422" cy="112" r="2"></circle>
                        <circle id="Oval" cx="392" cy="12" r="2"></circle>
                        <circle id="Oval" cx="112" cy="62" r="2"></circle>
                        <circle id="Oval" cx="192" cy="252" r="2"></circle>
                        <circle id="Oval" cx="197.0944" cy="405.928731" r="2"></circle>
                        <circle id="Oval" cx="112" cy="392" r="2"></circle>
                        <circle id="Oval" cx="182" cy="522" r="2"></circle>
                        <circle id="Oval" cx="312" cy="502" r="2"></circle>
                        <circle id="Oval" cx="282" cy="402" r="2"></circle>
                        <circle id="Oval" cx="2" cy="452" r="2"></circle>
                        <circle id="Oval" cx="87.2094453" cy="671.544233" r="2"></circle>
                        <circle id="Oval" cx="812" cy="42" r="2"></circle>
                        <circle id="Oval" cx="702" cy="2" r="2"></circle>
                        <circle id="Oval" cx="772" cy="132" r="2"></circle>
                        <circle id="Oval" cx="592" cy="62" r="2"></circle>
                        <circle id="Oval" cx="740.936543" cy="239.844628" r="2"></circle>
                        <circle id="Oval" cx="582" cy="212" r="2"></circle>
                        <circle id="Oval" cx="472" cy="172" r="2"></circle>
                        <circle id="Oval" cx="552.418891" cy="361.088465" r="2"></circle>
                        <circle id="Oval" cx="677.209445" cy="311.544233" r="2"></circle>
                        <circle id="Oval" cx="642" cy="182" r="2"></circle>
                        <circle id="Oval" cx="362" cy="232" r="2"></circle>
                        <circle id="Oval" cx="442" cy="422" r="2"></circle>
                    </g>
                </g>
                <g id="small" transform="translate(993.000000, 848.000000) rotate(90.000000) translate(-993.000000, -848.000000) translate(145.500000, -144.500000)">
                    <g id="stars-1" transform="translate(244.000000, 479.000000)">
                        <circle id="Oval" cx="331" cy="181" r="1"></circle>
                        <circle id="Oval" cx="181" cy="281" r="1"></circle>
                        <circle id="Oval" cx="291" cy="271" r="1"></circle>
                        <circle id="Oval" cx="41" cy="1" r="1"></circle>
                        <circle id="Oval" cx="391" cy="111" r="1"></circle>
                        <circle id="Oval" cx="111" cy="201" r="1"></circle>
                        <circle id="Oval" cx="191" cy="391" r="1"></circle>
                        <circle id="Oval" cx="221" cy="571" r="1"></circle>
                        <circle id="Oval" cx="111" cy="531" r="1"></circle>
                        <circle id="Oval" cx="171" cy="601" r="1"></circle>
                        <circle id="Oval" cx="351" cy="591" r="1"></circle>
                        <circle id="Oval" cx="281" cy="541" r="1"></circle>
                        <circle id="Oval" cx="1" cy="591" r="1"></circle>
                        <circle id="Oval" cx="81" cy="781" r="1"></circle>
                        <circle id="Oval" cx="811" cy="181" r="1"></circle>
                        <circle id="Oval" cx="701" cy="141" r="1"></circle>
                        <circle id="Oval" cx="771" cy="271" r="1"></circle>
                        <circle id="Oval" cx="871" cy="151" r="1"></circle>
                        <circle id="Oval" cx="591" cy="201" r="1"></circle>
                        <circle id="Oval" cx="681" cy="561" r="1"></circle>
                        <circle id="Oval" cx="581" cy="351" r="1"></circle>
                        <circle id="Oval" cx="471" cy="311" r="1"></circle>
                        <circle id="Oval" cx="541" cy="441" r="1"></circle>
                        <circle id="Oval" cx="671" cy="421" r="1"></circle>
                        <circle id="Oval" cx="641" cy="321" r="1"></circle>
                        <circle id="Oval" cx="361" cy="361" r="1"></circle>
                        <circle id="Oval" cx="551" cy="621" r="1"></circle>
                    </g>
                    <g id="stars-3" transform="translate(568.383975, 1452.488149) rotate(-30.000000) translate(-568.383975, -1452.488149) translate(117.383975, 1097.988149)">
                        <circle id="Oval" cx="331" cy="107" r="1"></circle>
                        <circle id="Oval" cx="221" cy="67" r="1"></circle>
                        <circle id="Oval" cx="291" cy="197" r="1"></circle>
                        <circle id="Oval" cx="421" cy="177" r="1"></circle>
                        <circle id="Oval" cx="391" cy="77" r="1"></circle>
                        <circle id="Oval" cx="811" cy="107" r="1"></circle>
                        <circle id="Oval" cx="727.339746" cy="1.37822174" r="1"></circle>
                        <circle id="Oval" cx="730.21539" cy="219.641016" r="1"></circle>
                        <circle id="Oval" cx="901" cy="177" r="1"></circle>
                        <circle id="Oval" cx="871" cy="77" r="1"></circle>
                        <circle id="Oval" cx="581" cy="144.320508" r="1"></circle>
                        <circle id="Oval" cx="671" cy="317" r="1"></circle>
                        <circle id="Oval" cx="581" cy="277" r="1"></circle>
                        <circle id="Oval" cx="471" cy="237" r="1"></circle>
                        <circle id="Oval" cx="541" cy="367" r="1"></circle>
                        <circle id="Oval" cx="606" cy="459.583302" r="1"></circle>
                        <circle id="Oval" cx="623.679492" cy="237" r="1"></circle>
                        <circle id="Oval" cx="361" cy="297" r="1"></circle>
                    </g>
                    <g id="stars-3" transform="translate(512.482064, 478.380562) rotate(-10.000000) translate(-512.482064, -478.380562) translate(61.482064, 113.380562)">
                        <circle id="Oval" cx="331" cy="41" r="1"></circle>
                        <circle id="Oval" cx="221" cy="1" r="1"></circle>
                        <circle id="Oval" cx="291" cy="131" r="1"></circle>
                        <circle id="Oval" cx="421" cy="111" r="1"></circle>
                        <circle id="Oval" cx="391" cy="11" r="1"></circle>
                        <circle id="Oval" cx="191" cy="251" r="1"></circle>
                        <circle id="Oval" cx="221" cy="431" r="1"></circle>
                        <circle id="Oval" cx="311" cy="501" r="1"></circle>
                        <circle id="Oval" cx="327.90905" cy="307.72867" r="1"></circle>
                        <circle id="Oval" cx="811" cy="41" r="1"></circle>
                        <circle id="Oval" cx="771" cy="131" r="1"></circle>
                        <circle id="Oval" cx="901" cy="111" r="1"></circle>
                        <circle id="Oval" cx="591" cy="61" r="1"></circle>
                        <circle id="Oval" cx="671" cy="251" r="1"></circle>
                        <circle id="Oval" cx="577.527036" cy="230.696155" r="1"></circle>
                        <circle id="Oval" cx="423.711037" cy="699.301088" r="1"></circle>
                        <circle id="Oval" cx="209.37986" cy="728.526876" r="1"></circle>
                        <circle id="Oval" cx="471" cy="171" r="1"></circle>
                        <circle id="Oval" cx="535.790555" cy="330.544233" r="1"></circle>
                        <circle id="Oval" cx="724.87902" cy="320.963123" r="1"></circle>
                        <circle id="Oval" cx="641" cy="181" r="1"></circle>
                        <circle id="Oval" cx="361" cy="231" r="1"></circle>
                        <circle id="Oval" cx="441" cy="421" r="1"></circle>
                    </g>
                    <g id="stars-2" transform="translate(1139.133975, 1263.571797) rotate(30.000000) translate(-1139.133975, -1263.571797) translate(688.133975, 934.571797)">
                        <circle id="Oval" cx="221" cy="16" r="1"></circle>
                        <circle id="Oval" cx="291" cy="146" r="1"></circle>
                        <circle id="Oval" cx="111" cy="76" r="1"></circle>
                        <circle id="Oval" cx="191" cy="266" r="1"></circle>
                        <circle id="Oval" cx="227.339746" cy="476.980762" r="1"></circle>
                        <circle id="Oval" cx="111" cy="406" r="1"></circle>
                        <circle id="Oval" cx="203.320508" cy="534.660254" r="1"></circle>
                        <circle id="Oval" cx="311" cy="516" r="1"></circle>
                        <circle id="Oval" cx="281" cy="416" r="1"></circle>
                        <circle id="Oval" cx="1" cy="466" r="1"></circle>
                        <circle id="Oval" cx="139.30127" cy="656.980762" r="1"></circle>
                        <circle id="Oval" cx="361" cy="246" r="1"></circle>
                        <circle id="Oval" cx="441" cy="436" r="1"></circle>
                    </g>
                    <g id="stars-4" transform="translate(1082.584118, 409.473840) rotate(10.000000) translate(-1082.584118, -409.473840) translate(631.584118, 73.473840)">
                        <circle id="Oval" cx="195.498504" cy="90.2782351" r="1"></circle>
                        <circle id="Oval" cx="291" cy="131" r="1"></circle>
                        <circle id="Oval" cx="421" cy="111" r="1"></circle>
                        <circle id="Oval" cx="191" cy="251" r="1"></circle>
                        <circle id="Oval" cx="221" cy="431" r="1"></circle>
                        <circle id="Oval" cx="111" cy="391" r="1"></circle>
                        <circle id="Oval" cx="181" cy="521" r="1"></circle>
                        <circle id="Oval" cx="311" cy="501" r="1"></circle>
                        <circle id="Oval" cx="281" cy="401" r="1"></circle>
                        <circle id="Oval" cx="1" cy="451" r="1"></circle>
                        <circle id="Oval" cx="86.2094453" cy="670.544233" r="1"></circle>
                        <circle id="Oval" cx="282.21538" cy="244.891854" r="1"></circle>
                        <circle id="Oval" cx="337.236026" cy="326.578625" r="1"></circle>
                        <circle id="Oval" cx="304.21883" cy="312.091915" r="1"></circle>
                        <circle id="Oval" cx="441" cy="421" r="1"></circle>
                    </g>
                </g>
            </g>
        </g>
    </g>
</svg>